<svg width="24" height="25" viewBox="0 0 24 25" fill="none" xmlns="http://www.w3.org/2000/svg">
<g clip-path="url(#clip0_122_198)">
<path d="M23.766 12.3905C23.766 11.5748 23.6999 10.7546 23.5588 9.95215H12.24V14.5731H18.7217C18.4528 16.0635 17.5885 17.3819 16.323 18.2196V21.218H20.19C22.4608 19.128 23.766 16.0414 23.766 12.3905Z" fill="#4285F4"/>
<path d="M12.24 24.1148C15.4764 24.1148 18.2058 23.0522 20.1944 21.2179L16.3274 18.2196C15.2516 18.9515 13.8626 19.366 12.2444 19.366C9.11376 19.366 6.45934 17.2539 5.50693 14.4143H1.51648V17.5052C3.55359 21.5574 7.70278 24.1148 12.24 24.1148Z" fill="#34A853"/>
<path d="M5.50253 14.4142C4.99987 12.9239 4.99987 11.3101 5.50253 9.8197V6.72876H1.51649C-0.18551 10.1195 -0.18551 14.1144 1.51649 17.5052L5.50253 14.4142Z" fill="#FBBC04"/>
<path d="M12.24 4.86367C13.9508 4.83722 15.6043 5.48098 16.8433 6.66268L20.2694 3.23663C18.1 1.19952 15.2207 0.0795477 12.24 0.114822C7.70277 0.114822 3.55359 2.67224 1.51648 6.72882L5.50252 9.81976C6.45052 6.97574 9.10935 4.86367 12.24 4.86367Z" fill="#EA4335"/>
</g>
<defs>
<clipPath id="clip0_122_198">
<rect width="24" height="24" fill="white" transform="translate(0 0.114014)"/>
</clipPath>
</defs>
</svg>
