<svg width="180" height="31" viewBox="0 0 180 31" fill="none" xmlns="http://www.w3.org/2000/svg">
<g clip-path="url(#clip0_122_169)">
<path d="M0.104607 24.9339V6.42341H5.33498V24.9339H0.104607ZM0 4.14414V0H5.40471V4.14414H0Z" fill="#2E3134"/>
<path d="M8.77149 24.9339V6.42341H13.4788L13.5834 9.46245C14.6295 6.97597 16.6519 6.009 19.1276 6.009C23.1376 6.009 25.4738 8.73723 25.4738 13.0195V24.9339H20.2434V14.7462C20.2434 11.7763 19.5809 10.1186 17.3842 10.1186C15.2223 10.1186 14.0019 11.7763 14.0019 14.7462V24.9339H8.77149Z" fill="#2E3134"/>
<path d="M36.0759 24.9339C32.2055 24.9339 30.462 23.2417 30.462 19.3738V10.2913H27.4633V6.42341H30.462V2.07207H35.6924V6.42341H40.6089V10.2913H35.6924V18.7522C35.6924 20.548 36.4595 21.066 37.9937 21.066H40.6089V24.9339H36.0759Z" fill="#2E3134"/>
<path d="M51.332 25.3483C45.6134 25.3483 41.9173 21.515 41.9173 15.6787C41.9173 9.84233 45.6134 6.009 51.2971 6.009C56.8413 6.009 60.4328 9.80779 60.4328 16.024V17.06H47.322C47.4266 19.9955 48.9958 21.4114 51.4366 21.4114C53.18 21.4114 54.4005 20.6862 54.9235 19.1666L60.1887 19.4774C59.1775 23.1726 55.8301 25.3483 51.332 25.3483ZM55.0979 13.8829C54.9584 11.1892 53.459 9.84233 51.2971 9.84233C49.1004 9.84233 47.601 11.3273 47.322 13.8829H55.0979Z" fill="#2E3134"/>
<path d="M63.1033 24.9339V6.42341H68.0547L68.1593 10.1531C68.9265 7.52852 70.3212 6.42341 72.6226 6.42341H74.3312V10.7057H72.6226C69.6936 10.7057 68.3337 11.7763 68.3337 14.539V24.9339H63.1033Z" fill="#2E3134"/>
<path d="M76.7418 24.9339V6.42341H81.9721V24.9339H76.7418ZM76.6372 4.14414V0H82.0419V4.14414H76.6372Z" fill="#2E3134"/>
<path d="M105.909 24.9339V0.414415H111.139V14.021L118.078 6.42341H124.354L117.102 14.0555L124.564 24.9339H118.845L113.719 16.991L111.139 19.7192V24.9339H105.909Z" fill="#2E3134"/>
<path d="M133.741 25.3483C128.022 25.3483 124.326 21.515 124.326 15.6787C124.326 9.84233 128.022 6.009 133.706 6.009C139.25 6.009 142.842 9.80779 142.842 16.024V17.06H129.731C129.836 19.9955 131.405 21.4114 133.846 21.4114C135.589 21.4114 136.809 20.6862 137.332 19.1666L142.598 19.4774C141.586 23.1726 138.239 25.3483 133.741 25.3483ZM137.507 13.8829C137.367 11.1892 135.868 9.84233 133.706 9.84233C131.509 9.84233 130.01 11.3273 129.731 13.8829H137.507Z" fill="#2E3134"/>
<path d="M146.366 30.1141V26.2462H148.842C150.028 26.2462 150.481 25.9699 150.83 25.072L151.248 24.0015H149.818L143.228 6.42341H148.598L152.852 19.1666L156.897 6.42341H162.232L155.049 26.6952C154.177 29.1471 152.747 30.1141 149.923 30.1141H146.366Z" fill="#2E3134"/>
<path d="M171.631 25.3483C165.843 25.3483 162.949 22.7237 162.67 19.0976L167.97 18.9249C168.284 20.6862 169.4 21.6877 171.666 21.6877C173.514 21.6877 174.63 21.1006 174.63 19.8573C174.63 18.7177 174.003 18.1651 170.829 17.6471C164.902 16.6802 163.123 15.1606 163.123 11.9489C163.123 8.39188 165.878 6.009 171.422 6.009C176.687 6.009 179.407 8.66816 179.861 12.3633L174.63 12.5706C174.386 10.7748 173.235 9.66966 171.352 9.66966C169.504 9.66966 168.493 10.4985 168.493 11.7417C168.493 13.0886 169.4 13.6411 171.98 14.021C177.978 14.8844 180 16.542 180 19.7537C180 23.3453 176.757 25.3483 171.631 25.3483Z" fill="#2E3134"/>
<g filter="url(#filter0_d_122_169)">
<path fill-rule="evenodd" clip-rule="evenodd" d="M93.7646 24.6388C99.0558 24.6388 103.346 20.349 103.346 15.0571C103.346 9.76523 99.0558 5.47534 93.7646 5.47534C88.4727 5.47534 84.1825 9.76523 84.1825 15.0571C84.1825 20.349 88.4727 24.6388 93.7646 24.6388ZM96.3674 10.9168L91.8912 9.53462V20.5796L96.3674 19.1997V10.9168Z" fill="#C53D3D"/>
</g>
<path d="M99.5614 7.42676L91.9107 9.53803L96.3674 10.9163L96.3742 10.9163V19.1992H96.3674L91.9148 20.574L99.2412 22.9198C101.723 21.1882 103.346 18.312 103.346 15.0566C103.346 11.9434 101.862 9.17695 99.5614 7.42676Z" fill="url(#paint0_linear_122_169)" fill-opacity="0.45"/>
<path d="M92.4128 6.07526C91.7857 6.72386 91.3993 7.60746 91.3993 8.58173V21.5324C91.3993 22.5067 91.7857 23.3903 92.4128 24.0389C88.0381 23.3861 84.6825 19.6134 84.6825 15.0571C84.6825 10.5007 88.0381 6.72806 92.4128 6.07526Z" fill="url(#paint1_linear_122_169)" stroke="url(#paint2_linear_122_169)"/>
<path d="M91.9216 9.52905L96.3979 10.911V19.1943L91.9216 20.5734V9.52905Z" fill="white"/>
</g>
<defs>
<filter id="filter0_d_122_169" x="84.1825" y="5.47534" width="19.1635" height="19.1636" filterUnits="userSpaceOnUse" color-interpolation-filters="sRGB">
<feFlood flood-opacity="0" result="BackgroundImageFix"/>
<feColorMatrix in="SourceAlpha" type="matrix" values="0 0 0 0 0 0 0 0 0 0 0 0 0 0 0 0 0 0 127 0" result="hardAlpha"/>
<feOffset/>
<feComposite in2="hardAlpha" operator="out"/>
<feColorMatrix type="matrix" values="0 0 0 0 0.1625 0 0 0 0 0.1625 0 0 0 0 0.1625 0 0 0 1 0"/>
<feBlend mode="normal" in2="BackgroundImageFix" result="effect1_dropShadow_122_169"/>
<feBlend mode="normal" in="SourceGraphic" in2="effect1_dropShadow_122_169" result="shape"/>
</filter>
<linearGradient id="paint0_linear_122_169" x1="103.346" y1="15.1733" x2="91.9107" y2="15.1733" gradientUnits="userSpaceOnUse">
<stop offset="0.2" stop-color="white" stop-opacity="0.2"/>
<stop offset="0.645" stop-color="white"/>
</linearGradient>
<linearGradient id="paint1_linear_122_169" x1="93.7643" y1="5.47534" x2="93.7643" y2="24.6388" gradientUnits="userSpaceOnUse">
<stop stop-color="#982222"/>
<stop offset="0.575" stop-color="#E35151"/>
</linearGradient>
<linearGradient id="paint2_linear_122_169" x1="93.7643" y1="5.47534" x2="93.7643" y2="24.6388" gradientUnits="userSpaceOnUse">
<stop stop-color="#982222"/>
<stop offset="0.575" stop-color="#E35151"/>
</linearGradient>
<clipPath id="clip0_122_169">
<rect width="180" height="30.1141" fill="white"/>
</clipPath>
</defs>
</svg>
