<svg width="24" height="25" viewBox="0 0 24 25" fill="none" xmlns="http://www.w3.org/2000/svg">
<g clip-path="url(#clip0_122_196)">
<path d="M22.2283 0.114014H1.77167C1.30179 0.114014 0.851161 0.300671 0.518909 0.632923C0.186657 0.965175 0 1.41581 0 1.88568V22.3423C0 22.8122 0.186657 23.2629 0.518909 23.5951C0.851161 23.9274 1.30179 24.114 1.77167 24.114H22.2283C22.6982 24.114 23.1488 23.9274 23.4811 23.5951C23.8133 23.2629 24 22.8122 24 22.3423V1.88568C24 1.41581 23.8133 0.965175 23.4811 0.632923C23.1488 0.300671 22.6982 0.114014 22.2283 0.114014ZM7.15333 20.559H3.545V9.09735H7.15333V20.559ZM5.34667 7.50901C4.93736 7.50671 4.53792 7.38321 4.19873 7.1541C3.85955 6.92499 3.59584 6.60054 3.44088 6.2217C3.28591 5.84286 3.24665 5.42661 3.32803 5.02547C3.40941 4.62433 3.6078 4.25629 3.89816 3.9678C4.18851 3.6793 4.55782 3.48328 4.95947 3.40447C5.36112 3.32567 5.77711 3.36761 6.15495 3.525C6.53279 3.68239 6.85554 3.94818 7.08247 4.28883C7.30939 4.62947 7.43032 5.02971 7.43 5.43901C7.43386 5.71305 7.38251 5.98505 7.27901 6.23882C7.17551 6.49258 7.02198 6.72291 6.82757 6.91608C6.63316 7.10925 6.40185 7.2613 6.14742 7.36316C5.893 7.46503 5.62067 7.51463 5.34667 7.50901ZM20.4533 20.569H16.8467V14.3073C16.8467 12.4607 16.0617 11.8907 15.0483 11.8907C13.9783 11.8907 12.9283 12.6973 12.9283 14.354V20.569H9.32V9.10568H12.79V10.694H12.8367C13.185 9.98901 14.405 8.78401 16.2667 8.78401C18.28 8.78401 20.455 9.97901 20.455 13.479L20.4533 20.569Z" fill="#0A66C2"/>
</g>
<defs>
<clipPath id="clip0_122_196">
<rect width="24" height="24" fill="white" transform="translate(0 0.114014)"/>
</clipPath>
</defs>
</svg>
