<svg width="24" height="25" viewBox="0 0 24 25" fill="none" xmlns="http://www.w3.org/2000/svg">
<g clip-path="url(#clip0_122_203)">
<path d="M23.522 6.29942C23.3863 5.78884 23.1189 5.32284 22.7465 4.94808C22.3741 4.57331 21.9099 4.30292 21.4002 4.16397C19.5238 3.65942 12.0238 3.65942 12.0238 3.65942C12.0238 3.65942 4.5238 3.65942 2.64744 4.16397C2.13773 4.30292 1.67346 4.57331 1.30109 4.94808C0.92872 5.32284 0.661309 5.78884 0.525622 6.29942C0.0238038 8.18397 0.0238037 12.114 0.0238037 12.114C0.0238037 12.114 0.0238038 16.044 0.525622 17.9285C0.661309 18.4391 0.92872 18.9051 1.30109 19.2799C1.67346 19.6546 2.13773 19.925 2.64744 20.064C4.5238 20.5685 12.0238 20.5685 12.0238 20.5685C12.0238 20.5685 19.5238 20.5685 21.4002 20.064C21.9099 19.925 22.3741 19.6546 22.7465 19.2799C23.1189 18.9051 23.3863 18.4391 23.522 17.9285C24.0238 16.044 24.0238 12.114 24.0238 12.114C24.0238 12.114 24.0238 8.18397 23.522 6.29942Z" fill="#FF0302"/>
<path d="M9.56934 15.6827V8.54541L15.8421 12.114L9.56934 15.6827Z" fill="#FEFEFE"/>
</g>
<defs>
<clipPath id="clip0_122_203">
<rect width="24" height="24" fill="white" transform="translate(0 0.114014)"/>
</clipPath>
</defs>
</svg>
